# xmcd
#
# Track frame offsets:
#	150
#	8148
#	23383
#	32940
#	52150
#	58927
#	87680
#	94506
#	101809
#	111873
#	123485
#	133894
#	156444
#	174847
#	181909
#	188496
#	206552
#
# Disc length: 2903 seconds
#
# Revision: 0
# Processed by: cddbd v1.5.2PL0 Copyright (c) Steve Scherf et al.
# Submitted via: EasyCDDAExtractor 16.1.0.1
#
DISCID=e90b5511
DTITLE=Ιερέας-πρωτοψάλτης - Παρακλητικός κανών Αγ. Πορφυρίου Καυσοκ.
DYEAR=2015
DGENRE=Βυζ. Εκκλησιαστική
TTITLE0=Μέρος 1
TTITLE1=Μέρος 2
TTITLE2=Μέρος 3
TTITLE3=Μέρος 4
TTITLE4=Μέρος 5
TTITLE5=Μέρος 6
TTITLE6=Μέρος 7
TTITLE7=Μέρος 8
TTITLE8=Μέρος 9
TTITLE9=Μέρος 10
TTITLE10=Μέρος 11
TTITLE11=Μέρος 12
TTITLE12=Μέρος 13
TTITLE13=Μέρος 14
TTITLE14=Μέρος 15
TTITLE15=Μέρος 16
TTITLE16=Μέρος 17
EXTD=
EXTT0=
EXTT1=
EXTT2=
EXTT3=
EXTT4=
EXTT5=
EXTT6=
EXTT7=
EXTT8=
EXTT9=
EXTT10=
EXTT11=
EXTT12=
EXTT13=
EXTT14=
EXTT15=
EXTT16=
PLAYORDER=
